<?xml version="1.0" encoding="utf-8"?>
<!-- Generator: Adobe Illustrator 17.1.0, SVG Export Plug-In . SVG Version: 6.00 Build 0)  -->
<!DOCTYPE svg PUBLIC "-//W3C//DTD SVG 1.1//EN" "http://www.w3.org/Graphics/SVG/1.1/DTD/svg11.dtd">
<svg version="1.1" xmlns="http://www.w3.org/2000/svg" xmlns:xlink="http://www.w3.org/1999/xlink" x="0px" y="0px"
	 viewBox="0 0 240.7 242.4" enable-background="new 0 0 240.7 242.4" xml:space="preserve">
<g id="Layer_1">
	<circle fill="none" cx="120.1" cy="121.2" r="104.9"/>
	<text transform="matrix(0.6673 -0.7448 0.7448 0.6673 35.1616 53.1977)"><tspan x="0" y="0" fill="#FFFFFF" font-family="'MyriadPro-Regular'" font-size="15">M</tspan><tspan x="15.1" y="0.3" fill="#FFFFFF" font-family="'MyriadPro-Regular'" font-size="15" rotate="7.2">A</tspan><tspan x="27.3" y="2" fill="#FFFFFF" font-family="'MyriadPro-Regular'" font-size="15" rotate="13.8">N</tspan><tspan x="39.8" y="5.3" fill="#FFFFFF" font-family="'MyriadPro-Regular'" font-size="15" rotate="20">T</tspan><tspan x="49.6" y="9" fill="#FFFFFF" font-family="'MyriadPro-Regular'" font-size="15" rotate="25.8">V</tspan><tspan x="59.8" y="14.1" fill="#FFFFFF" font-family="'MyriadPro-Regular'" font-size="15" rotate="31.8">Y</tspan><tspan x="69.3" y="20.1" fill="#FFFFFF" font-family="'MyriadPro-Regular'" font-size="15" rotate="38.2">D</tspan><tspan x="79.4" y="28.3" fill="#FFFFFF" font-family="'MyriadPro-Regular'" font-size="15" rotate="44.9">A</tspan><tspan x="87.9" y="37.1" fill="#FFFFFF" font-family="'MyriadPro-Regular'" font-size="15" rotate="50.8">S</tspan><tspan x="94.4" y="45.3" fill="#FFFFFF" font-family="'MyriadPro-Regular'" font-size="15" rotate="55.1"> </tspan><tspan x="97.9" y="50.5" fill="#FFFFFF" font-family="'MyriadPro-Regular'" font-size="15" rotate="59.7">B</tspan><tspan x="103.4" y="60.2" fill="#FFFFFF" font-family="'MyriadPro-Regular'" font-size="15" rotate="64.4">I</tspan><tspan x="106.2" y="66.2" fill="#FFFFFF" font-family="'MyriadPro-Regular'" font-size="15" rotate="69.6">N</tspan><tspan x="110.6" y="78.4" fill="#FFFFFF" font-family="'MyriadPro-Regular'" font-size="15" rotate="76.5">D</tspan><tspan x="113.4" y="91.1" fill="#FFFFFF" font-family="'MyriadPro-Regular'" font-size="15" rotate="82.7">E</tspan><tspan x="114.6" y="101.5" fill="#FFFFFF" font-family="'MyriadPro-Regular'" font-size="15" rotate="88.4">R</tspan><tspan x="114.7" y="112.6" fill="#FFFFFF" font-family="'MyriadPro-Regular'" font-size="15" rotate="93">I</tspan><tspan x="114.3" y="119.2" fill="#FFFFFF" font-family="'MyriadPro-Regular'" font-size="15" rotate="97.5">S</tspan></text>
	<circle fill="none" cx="120.1" cy="121.2" r="104.9"/>
	<text transform="matrix(0.1615 0.9869 -0.9869 0.1615 3.6289 136.6845)"><tspan x="0" y="0" fill="#FFFFFF" font-family="'MyriadPro-Regular'" font-size="15">F</tspan><tspan x="11.2" y="-0.2" fill="#FFFFFF" font-family="'MyriadPro-Regular'" font-size="15" rotate="-5.7">R</tspan><tspan x="23.3" y="-1.5" fill="#FFFFFF" font-family="'MyriadPro-Regular'" font-size="15" rotate="-12.2">O</tspan><tspan x="37.4" y="-4.9" fill="#FFFFFF" font-family="'MyriadPro-Regular'" font-size="15" rotate="-19.2">N</tspan><tspan x="50.4" y="-9.7" fill="#FFFFFF" font-family="'MyriadPro-Regular'" font-size="15" rotate="-25.4">T</tspan><tspan x="60.4" y="-14.7" fill="#FFFFFF" font-family="'MyriadPro-Regular'" font-size="15" rotate="-30.1">-</tspan><tspan x="67.6" y="-19" fill="#FFFFFF" font-family="'MyriadPro-Regular'" font-size="15" rotate="-34.9">E</tspan><tspan x="76.9" y="-25.6" fill="#FFFFFF" font-family="'MyriadPro-Regular'" font-size="15" rotate="-41">N</tspan><tspan x="87.3" y="-35" fill="#FFFFFF" font-family="'MyriadPro-Regular'" font-size="15" rotate="-47.8">D</tspan><tspan x="96.3" y="-45.4" fill="#FFFFFF" font-family="'MyriadPro-Regular'" font-size="15" rotate="-52.9"> </tspan><tspan x="100.6" y="-51.1" fill="#FFFFFF" font-family="'MyriadPro-Regular'" font-size="15" rotate="-58">D</tspan><tspan x="107.7" y="-63.1" fill="#FFFFFF" font-family="'MyriadPro-Regular'" font-size="15" rotate="-64.2">E</tspan><tspan x="112.5" y="-73.4" fill="#FFFFFF" font-family="'MyriadPro-Regular'" font-size="15" rotate="-70.1">V</tspan><tspan x="116.5" y="-85" fill="#FFFFFF" font-family="'MyriadPro-Regular'" font-size="15" rotate="-75.8">E</tspan><tspan x="119.1" y="-96" fill="#FFFFFF" font-family="'MyriadPro-Regular'" font-size="15" rotate="-81.6">L</tspan><tspan x="120.6" y="-106.9" fill="#FFFFFF" font-family="'MyriadPro-Regular'" font-size="15" rotate="-87.3">O</tspan><tspan x="121" y="-121.3" fill="#FFFFFF" font-family="'MyriadPro-Regular'" font-size="15" rotate="-93.8">P</tspan><tspan x="120" y="-133.2" fill="#FFFFFF" font-family="'MyriadPro-Regular'" font-size="15" rotate="-99.5">E</tspan><tspan x="118" y="-144.3" fill="#FFFFFF" font-family="'MyriadPro-Regular'" font-size="15" rotate="-105.2">R</tspan><tspan x="114.6" y="-155.6" fill="#FFFFFF" font-family="'MyriadPro-Regular'" font-size="15" rotate="-109.8"> </tspan><tspan x="112.2" y="-162.2" fill="#FFFFFF" font-family="'MyriadPro-Regular'" font-size="15" rotate="-114.3">P</tspan><tspan x="107.1" y="-173" fill="#FFFFFF" font-family="'MyriadPro-Regular'" font-size="15" rotate="-120.7">O</tspan><tspan x="99.5" y="-185.3" fill="#FFFFFF" font-family="'MyriadPro-Regular'" font-size="15" rotate="-127.2">R</tspan><tspan x="92.1" y="-194.7" fill="#FFFFFF" font-family="'MyriadPro-Regular'" font-size="15" rotate="-132.9">T</tspan><tspan x="84.3" y="-202.9" fill="#FFFFFF" font-family="'MyriadPro-Regular'" font-size="15" rotate="-138.3">F</tspan><tspan x="75.7" y="-210.3" fill="#FFFFFF" font-family="'MyriadPro-Regular'" font-size="15" rotate="-144.6">O</tspan><tspan x="63.8" y="-218.4" fill="#FFFFFF" font-family="'MyriadPro-Regular'" font-size="15" rotate="-150.9">L</tspan><tspan x="54.3" y="-223.5" fill="#FFFFFF" font-family="'MyriadPro-Regular'" font-size="15" rotate="-155.3">I</tspan><tspan x="47.5" y="-226.5" fill="#FFFFFF" font-family="'MyriadPro-Regular'" font-size="15" rotate="-160.6">O</tspan></text>
	<path fill="none" stroke="#FFFFFF" stroke-width="10" stroke-miterlimit="10" d="M9.6,131.5c-0.3-3.4-0.5-6.9-0.5-10.3
		c0-24.8,8.1-47.7,21.9-66.1"/>
	<path fill="none" stroke="#FFFFFF" stroke-width="10" stroke-miterlimit="10" d="M210.1,56.5c13.1,18.2,20.8,40.5,20.8,64.6
		c0,3.3-0.1,6.5-0.4,9.7"/>
</g>
<g id="Layer_2">
	<g>
		<g id="Small_Rec_1_">
		</g>
		<g id="Big_Rec_1_">
			<g>
				<g>
					<path fill="none" stroke="#FFFFFF" stroke-miterlimit="10" d="M187.9,116.3c1.7-3.7,0-8-3.7-9.7l-51.2-22.9
						c-3.7-1.7-6.8-2.9-6.8-2.7c0,0,2.2,2.7,4.9,5.6l25.8,28.3c2.7,2.9,2.4,7.6-0.5,10.2L128,151.3c-2.9,2.7-2.4,6.3,1.2,8
						l26.1,11.7c3.7,1.7,8,0,9.7-3.7L187.9,116.3z"/>
				</g>
				<g>
					<path fill="none" stroke="#FFFFFF" stroke-miterlimit="10" d="M131.1,86.5c-2.7-2.9-7.1-7.8-9.7-10.7l-8.8-9.5
						c-2.7-2.9-7.3-3.2-10.2-0.5l-48.5,44.3c-2.9,2.7-3.2,7.3-0.5,10.2l44.3,48.5c2.7,2.9,7.3,3.2,10.2,0.5l9-8.3
						c2.9-2.7,7.8-7.1,10.7-9.7l28.8-26.3c2.9-2.7,3.2-7.3,0.5-10.2L131.1,86.5z"/>
				</g>
			</g>
			<g>
				<g>
					<path fill="#FFFFFF" stroke="#FFFFFF" stroke-miterlimit="10" d="M144.5,125.3c-3.2,0-6.3,0-9.3,0c-0.2,0-0.5,0.2-0.5,0.2
						c-0.7,0.7-1.5,1.5-2.2,2.2c-1.5,1.5-2.9,2.9-4.4,4.4c-0.5,0.5-1,1.2-1.5,1.9c-0.2,0.7-0.2,1.5,0.7,1.7c0.2,0,0.2,0,0.5,0
						c1.7,0,3.4,0,4.9,0c7.8,0,15.6,0,23.4,0c1.5,0,2.7,0,4.1,0c0.5,0,0.7,0,1-0.5c0.7-1,1.7-1.7,2.2-2.9c1.2-1.7,2.4-3.7,2.2-5.8
						c0-0.7-0.2-1.5-0.7-2.2c-0.7-1.2-1.7-1.9-2.9-2.7c-0.5-0.2-1-0.7-1.5-1.2c1.9-1,2.9-1.7,4.4-3.2c0.7-1,1.2-1.9,1.5-3.2
						c0-1.2-0.5-2.4-1-3.7c-0.7-1.2-1.7-2.2-2.9-3.2c-1.2-1-2.7-1.5-4.4-1.5c-3.7,0-7.6,0-11.2,0c-2.9,0-5.8,0-8.8,0
						c-0.5,0-1.2,0.2-1.7,0.5c-1,0.7-1.7,1.5-2.7,2.2c-1,1-2.2,1.7-3.2,2.7c-1.2,1-2.4,2.2-3.9,3.2c-1.2,1-2.2,1.9-3.4,2.9l0,0
						c-1.7-1-3.2-1.7-4.9-2.7c-1.2-0.5-2.2-1.2-3.4-1.7c-1.7-1-3.2-1.7-4.9-2.7c-1-0.5-1.7-1-2.7-1.5c-1.7-1-3.7-1.9-5.4-2.9
						c-0.2,0-0.5-0.2-0.5-0.2c-4.4,0-8.5,0-12.9,0c-0.2,0-0.2,0-0.2,0c0,10,0,19.7,0,29.5c3.9,0,7.6,0,11.5,0c0-0.2,0-0.2,0-0.2
						c0-2.7,0-5.1,0-7.8c0-3.4,0-6.8,0-10.2c0-0.5,0-0.5,0.5-0.5c0.7,0.2,1.5,0.7,2.2,1c1.7,0.7,3.4,1.7,5.4,2.4
						c1.2,0.5,2.7,1.2,3.9,1.9c2.2,1,4.4,1.9,6.3,3.2c1.2,0.5,2.2,1,3.4,1.7c1.2,0.5,2.7,0.7,3.9,0c0.5-0.2,1-0.7,1.5-1.2
						c1.2-1,2.2-1.9,3.4-2.9c0.5-0.5,1.2-1,1.7-1.5c1-1,2.2-1.7,3.2-2.7c0.7-0.7,1.7-1.5,2.4-2.2c1.2-1,2.4-1.9,3.4-3.2
						c0.5-0.5,0.7-0.7,1.5-0.7c4.6,0,9,0,13.6,0c0.7,0,1.5,0.2,1.9,1s0.5,1.5,0,2.2c-0.5,1-1.7,1.7-2.7,1.9c-1.9,1-4.1,1.7-6.1,2.4
						c-0.2,0-0.2,0.2-0.5,0.2c0,0.2,0.2,0.2,0.2,0.2c1.2,0.5,2.4,1,3.7,1.7c1.2,0.7,2.4,1.5,3.4,2.7c1,1,1.2,2.4,0.2,3.7
						c-0.5,0.5-0.7,1-1.5,1c-1,0-1.9,0.2-3.2,0.2c-2.7,0-5.4,0-8,0c-1.2,0-2.4,0-3.7,0c-0.2,0-0.2,0-0.5-0.2c0-0.2,0-0.2,0.2-0.5
						c1.2-1,2.2-1.9,3.4-2.9C144.3,125.8,144.3,125.5,144.5,125.3z"/>
				</g>
			</g>
		</g>
	</g>
</g>
</svg>
