<?xml version="1.0" encoding="utf-8"?>
<!-- Generator: Adobe Illustrator 17.1.0, SVG Export Plug-In . SVG Version: 6.00 Build 0)  -->
<!DOCTYPE svg PUBLIC "-//W3C//DTD SVG 1.1//EN" "http://www.w3.org/Graphics/SVG/1.1/DTD/svg11.dtd">
<svg version="1.1" id="Layer_1" xmlns="http://www.w3.org/2000/svg" xmlns:xlink="http://www.w3.org/1999/xlink" x="0px" y="0px"
	 viewBox="0 0 1366 756" enable-background="new 0 0 1366 756" xml:space="preserve">
<g>
	<g>
		<path fill="#FF4D5A" d="M677.7,280.9c1.9,0,1.9-3,0-3C675.8,277.9,675.8,280.9,677.7,280.9L677.7,280.9z"/>
	</g>
</g>
<g>
	<g>
		<path fill="#FF4D5A" d="M935.5,194.1c1.9,0,1.9-3,0-3C933.6,191.1,933.6,194.1,935.5,194.1L935.5,194.1z"/>
	</g>
</g>
<g>
	<g>
		<path fill="#FF4D5A" d="M904.7,411.3c1.9,0,1.9-3,0-3C902.7,408.3,902.7,411.3,904.7,411.3L904.7,411.3z"/>
	</g>
</g>
<g>
	<g>
		<path fill="#FF4D5A" d="M850.3,331.4c1.9,0,1.9-3,0-3C848.3,328.4,848.3,331.4,850.3,331.4L850.3,331.4z"/>
	</g>
</g>
<g>
	<g>
		<path fill="#FF4D5A" d="M940,281.9c1.9,0,1.9-3,0-3C938,278.9,938,281.9,940,281.9L940,281.9z"/>
	</g>
</g>
<g>
	<g>
		<path fill="#FF4D5A" d="M1170.8,186.3c1.9,0,1.9-3,0-3S1168.9,186.3,1170.8,186.3L1170.8,186.3z"/>
	</g>
</g>
<g>
	<g>
		<path fill="#FF4D5A" d="M747.3,171.6c1.9,0,1.9-3,0-3C745.4,168.6,745.4,171.6,747.3,171.6L747.3,171.6z"/>
	</g>
</g>
<g>
	<g>
		<path fill="#FF4D5A" d="M587,468.6c1.9,0,1.9-3,0-3C585.1,465.6,585.1,468.6,587,468.6L587,468.6z"/>
	</g>
</g>
<g>
	<g>
		<path fill="#FF4D5A" d="M741.9,351c1.9,0,1.9-3,0-3S740,351,741.9,351L741.9,351z"/>
	</g>
</g>
<g>
	<g>
		<path fill="#FF4D5A" d="M998.8,358.3c1.9,0,1.9-3,0-3C996.8,355.3,996.8,358.3,998.8,358.3L998.8,358.3z"/>
	</g>
</g>
<g>
	<g>
		<path fill="#FF4D5A" d="M1007.1,335.8c1.9,0,1.9-3,0-3C1005.2,332.8,1005.2,335.8,1007.1,335.8L1007.1,335.8z"/>
	</g>
</g>
<g>
	<g>
		<path fill="#FF4D5A" d="M937.5,336.8c1.9,0,1.9-3,0-3C935.6,333.8,935.6,336.8,937.5,336.8L937.5,336.8z"/>
	</g>
</g>
<g>
	<g>
		<path fill="#FF4D5A" d="M992.4,264.2c1.9,0,1.9-3,0-3C990.5,261.2,990.5,264.2,992.4,264.2L992.4,264.2z"/>
	</g>
</g>
<g>
	<g>
		<path fill="#FF4D5A" d="M894.9,261.8c1.9,0,1.9-3,0-3C892.9,258.8,892.9,261.8,894.9,261.8L894.9,261.8z"/>
	</g>
</g>
<g>
	<g>
		<path fill="#FF4D5A" d="M1196.3,664.2c1.9,0,1.9-3,0-3C1194.4,661.2,1194.4,664.2,1196.3,664.2L1196.3,664.2z"/>
	</g>
</g>
<g>
	<g>
		<path fill="#FF4D5A" d="M1098.3,523.5c1.9,0,1.9-3,0-3C1096.4,520.5,1096.4,523.5,1098.3,523.5L1098.3,523.5z"/>
	</g>
</g>
<g>
	<g>
		<path fill="#FF4D5A" d="M994.4,367.7c1.9,0,1.9-3,0-3C992.4,364.7,992.4,367.7,994.4,367.7L994.4,367.7z"/>
	</g>
</g>
<g>
	<g>
		<path fill="#FF4D5A" d="M1065.9,307.9c1.9,0,1.9-3,0-3S1064,307.9,1065.9,307.9L1065.9,307.9z"/>
	</g>
</g>
<g>
	<g>
		<path fill="#FF4D5A" d="M997.3,305.9c1.9,0,1.9-3,0-3C995.4,302.9,995.4,305.9,997.3,305.9L997.3,305.9z"/>
	</g>
</g>
<g>
	<g>
		<path fill="#FF4D5A" d="M825.3,197.6c1.9,0,1.9-3,0-3C823.3,194.6,823.3,197.6,825.3,197.6L825.3,197.6z"/>
	</g>
</g>
<g>
	<g>
		<path fill="#FF4D5A" d="M366.9,529.4c1.9,0,1.9-3,0-3S365,529.4,366.9,529.4L366.9,529.4z"/>
	</g>
</g>
<g>
	<g>
		<path fill="#FF4D5A" d="M550.3,391.2c1.9,0,1.9-3,0-3C548.3,388.2,548.3,391.2,550.3,391.2L550.3,391.2z"/>
	</g>
</g>
<g>
	<g>
		<path fill="#FF4D5A" d="M539.5,217.7c1.9,0,1.9-3,0-3C537.5,214.7,537.5,217.7,539.5,217.7L539.5,217.7z"/>
	</g>
</g>
<g>
	<g>
		<path fill="#FF4D5A" d="M715.5,78c1.9,0,1.9-3,0-3C713.5,75,713.5,78,715.5,78L715.5,78z"/>
	</g>
</g>
<g>
	<g>
		<path fill="#FF4D5A" d="M908.6,125.5c1.9,0,1.9-3,0-3C906.7,122.5,906.7,125.5,908.6,125.5L908.6,125.5z"/>
	</g>
</g>
<g>
	<g>
		<path fill="#FF4D5A" d="M1100.3,61.8c1.9,0,1.9-3,0-3S1098.3,61.8,1100.3,61.8L1100.3,61.8z"/>
	</g>
</g>
<g>
	<g>
		<path fill="#FF4D5A" d="M950.7,77.5c1.9,0,1.9-3,0-3C948.8,74.5,948.8,77.5,950.7,77.5L950.7,77.5z"/>
	</g>
</g>
<g>
	<g>
		<path fill="#FF4D5A" d="M996.3,146.6c1.9,0,1.9-3,0-3C994.4,143.6,994.4,146.6,996.3,146.6L996.3,146.6z"/>
	</g>
</g>
<g>
	<g>
		<path fill="#FF4D5A" d="M1006.6,457.9c1.9,0,1.9-3,0-3C1004.7,454.9,1004.7,457.9,1006.6,457.9L1006.6,457.9z"/>
	</g>
</g>
<g>
	<g>
		<path fill="#FF4D5A" d="M912,371.1c1.9,0,1.9-3,0-3C910.1,368.1,910.1,371.1,912,371.1L912,371.1z"/>
	</g>
</g>
<g>
	<g>
		<path fill="#FF4D5A" d="M816.9,486.3c1.9,0,1.9-3,0-3S815,486.3,816.9,486.3L816.9,486.3z"/>
	</g>
</g>
<g>
	<g>
		<path fill="#FF4D5A" d="M832.1,416.7c1.9,0,1.9-3,0-3C830.2,413.7,830.2,416.7,832.1,416.7L832.1,416.7z"/>
	</g>
</g>
<g>
	<g>
		<path fill="#FF4D5A" d="M810.5,286.8c1.9,0,1.9-3,0-3C808.6,283.8,808.6,286.8,810.5,286.8L810.5,286.8z"/>
	</g>
</g>
<g>
	<g>
		<path fill="#FF4D5A" d="M871.8,276.5c1.9,0,1.9-3,0-3C869.9,273.5,869.9,276.5,871.8,276.5L871.8,276.5z"/>
	</g>
</g>
<g>
	<g>
		<path fill="#FF4D5A" d="M902.7,306.9c1.9,0,1.9-3,0-3C900.8,303.9,900.8,306.9,902.7,306.9L902.7,306.9z"/>
	</g>
</g>
<g>
	<g>
		<path fill="#FF4D5A" d="M658.6,193.2c3.9,0,3.9-6,0-6S654.7,193.2,658.6,193.2L658.6,193.2z"/>
	</g>
</g>
<g>
	<g>
		<path fill="#FF4D5A" d="M789.5,254.5c3.9,0,3.9-6,0-6S785.6,254.5,789.5,254.5L789.5,254.5z"/>
	</g>
</g>
<g>
	<g>
		<path fill="#FF4D5A" d="M799.3,386.8c3.9,0,3.9-6,0-6C795.4,380.8,795.4,386.8,799.3,386.8L799.3,386.8z"/>
	</g>
</g>
<g>
	<g>
		<path fill="#FF4D5A" d="M393.9,339.3c3.9,0,3.9-6,0-6S390,339.3,393.9,339.3L393.9,339.3z"/>
	</g>
</g>
<g>
	<g>
		<path fill="#FF4D5A" d="M610.5,476.5c3.9,0,3.9-6,0-6S606.7,476.5,610.5,476.5L610.5,476.5z"/>
	</g>
</g>
<g>
	<g>
		<path fill="#FF4D5A" d="M626.7,344.6c3.9,0,3.9-6,0-6C622.9,338.6,622.9,344.6,626.7,344.6L626.7,344.6z"/>
	</g>
</g>
<g>
	<g>
		<path fill="#FF4D5A" d="M934.1,355.4c3.9,0,3.9-6,0-6S930.2,355.4,934.1,355.4L934.1,355.4z"/>
	</g>
</g>
<g>
	<g>
		<path fill="#FF4D5A" d="M925.3,260.3c3.9,0,3.9-6,0-6S921.4,260.3,925.3,260.3L925.3,260.3z"/>
	</g>
</g>
<g>
	<g>
		<path fill="#FF4D5A" d="M918.9,314.7c3.9,0,3.9-6,0-6C915,308.7,915,314.7,918.9,314.7L918.9,314.7z"/>
	</g>
</g>
<g>
	<g>
		<path fill="#FF4D5A" d="M828.2,309.4c3.9,0,3.9-6,0-6C824.3,303.4,824.3,309.4,828.2,309.4L828.2,309.4z"/>
	</g>
</g>
<g>
	<g>
		<path fill="#FF4D5A" d="M902.7,376c3.9,0,3.9-6,0-6S898.8,376,902.7,376L902.7,376z"/>
	</g>
</g>
<g>
	<g>
		<path fill="#FF4D5A" d="M1003.7,27c3.9,0,3.9-6,0-6S999.8,27,1003.7,27L1003.7,27z"/>
	</g>
</g>
<g>
	<g>
		<path fill="#FF4D5A" d="M950.7,143.2c3.9,0,3.9-6,0-6S946.9,143.2,950.7,143.2L950.7,143.2z"/>
	</g>
</g>
<g>
	<g>
		<path fill="#FF4D5A" d="M1060.5,176c3.9,0,3.9-6,0-6C1056.7,170,1056.7,176,1060.5,176L1060.5,176z"/>
	</g>
</g>
<g>
	<g>
		<path fill="#FF4D5A" d="M876.2,194.2c3.9,0,3.9-6,0-6S872.4,194.2,876.2,194.2L876.2,194.2z"/>
	</g>
</g>
<g>
	<g>
		<path fill="#FF4D5A" d="M1025.7,558.9c3.9,0,3.9-6,0-6C1021.9,552.9,1021.9,558.9,1025.7,558.9L1025.7,558.9z"/>
	</g>
</g>
<g>
	<g>
		<path fill="#FF4D5A" d="M1131.1,558.4c3.9,0,3.9-6,0-6C1127.3,552.4,1127.3,558.4,1131.1,558.4L1131.1,558.4z"/>
	</g>
</g>
<g>
	<g>
		<path fill="#FF4D5A" d="M1229.7,620.1c3.9,0,3.9-6,0-6C1225.8,614.1,1225.8,620.1,1229.7,620.1L1229.7,620.1z"/>
	</g>
</g>
<g>
	<g>
		<path fill="#FF4D5A" d="M761,496.6c3.9,0,3.9-6,0-6C757.2,490.6,757.2,496.6,761,496.6L761,496.6z"/>
	</g>
</g>
<g>
	<g>
		<path fill="#FF4D5A" d="M869.9,420.1c3.9,0,3.9-6,0-6S866,420.1,869.9,420.1L869.9,420.1z"/>
	</g>
</g>
<g>
	<g>
		<path fill="#FF4D5A" d="M1099.3,270.6c3.9,0,3.9-6,0-6C1095.4,264.6,1095.4,270.6,1099.3,270.6L1099.3,270.6z"/>
	</g>
</g>
<g>
	<g>
		<path fill="#FF4D5A" d="M973.3,401.5c3.9,0,3.9-6,0-6S969.4,401.5,973.3,401.5L973.3,401.5z"/>
	</g>
</g>
<g>
	<g>
		<path fill="#FF4D5A" d="M966.9,306.9c5.8,0,5.8-9,0-9S961.1,306.9,966.9,306.9L966.9,306.9z"/>
	</g>
</g>
<g>
	<g>
		<path fill="#FF4D5A" d="M855.6,251c5.8,0,5.8-9,0-9C849.8,242,849.8,251,855.6,251L855.6,251z"/>
	</g>
</g>
<g>
	<g>
		<path fill="#FF4D5A" d="M1116.9,66.2c5.8,0,5.8-9,0-9C1111.1,57.2,1111.1,66.2,1116.9,66.2L1116.9,66.2z"/>
	</g>
</g>
<g>
	<g>
		<path fill="#FF4D5A" d="M1001.7,116.2c5.8,0,5.8-9,0-9C995.9,107.2,995.9,116.2,1001.7,116.2L1001.7,116.2z"/>
	</g>
</g>
<g>
	<g>
		<path fill="#FF4D5A" d="M1012,431c5.8,0,5.8-9,0-9C1006.2,422,1006.2,431,1012,431L1012,431z"/>
	</g>
</g>
<g>
	<g>
		<path fill="#FF4D5A" d="M1127.7,707.9c5.8,0,5.8-9,0-9C1121.9,698.9,1121.9,707.9,1127.7,707.9L1127.7,707.9z"/>
	</g>
</g>
<g>
	<g>
		<path fill="#FF4D5A" d="M884.6,615.3c5.8,0,5.8-9,0-9C878.8,606.3,878.8,615.3,884.6,615.3L884.6,615.3z"/>
	</g>
</g>
<g>
	<g>
		<path fill="#FF4D5A" d="M909.1,454.5c5.8,0,5.8-9,0-9S903.3,454.5,909.1,454.5L909.1,454.5z"/>
	</g>
</g>
<g>
	<g>
		<path fill="#FF4D5A" d="M231.6,512.3c5.8,0,5.8-9,0-9C225.8,503.3,225.8,512.3,231.6,512.3L231.6,512.3z"/>
	</g>
</g>
<g>
	<g>
		<path fill="#FF4D5A" d="M469.9,363.8c5.8,0,5.8-9,0-9C464.1,354.8,464.1,363.8,469.9,363.8L469.9,363.8z"/>
	</g>
</g>
<g>
	<g>
		<path fill="#FF4D5A" d="M455.6,470.2c5.8,0,5.8-9,0-9C449.8,461.2,449.8,470.2,455.6,470.2L455.6,470.2z"/>
	</g>
</g>
<g>
	<g>
		<path fill="#FF4D5A" d="M817.9,113.3c5.8,0,5.8-9,0-9C812.1,104.3,812.1,113.3,817.9,113.3L817.9,113.3z"/>
	</g>
</g>
<g>
	<g>
		<path fill="#FF4D5A" d="M886.5,335.9c5.8,0,5.8-9,0-9S880.7,335.9,886.5,335.9L886.5,335.9z"/>
	</g>
</g>
<g>
	<g>
		<path fill="#FF4D5A" d="M1248.8,390.7c3.9,0,3.9-6,0-6C1244.9,384.7,1244.9,390.7,1248.8,390.7L1248.8,390.7z"/>
	</g>
</g>
<g>
	<g>
		<path fill="#FF4D5A" d="M1194.9,268.7c3.9,0,3.9-6,0-6C1191,262.7,1191,268.7,1194.9,268.7L1194.9,268.7z"/>
	</g>
</g>
<g>
	<g>
		<path fill="#FF4D5A" d="M1110.5,374.1c3.9,0,3.9-6,0-6C1106.7,368.1,1106.7,374.1,1110.5,374.1L1110.5,374.1z"/>
	</g>
</g>
<g>
	<g>
		<path fill="#FF4D5A" d="M1026.7,340.7c3.9,0,3.9-6,0-6C1022.9,334.7,1022.9,340.7,1026.7,340.7L1026.7,340.7z"/>
	</g>
</g>
<g>
	<g>
		<path fill="#FF4D5A" d="M1016.9,256.9c3.9,0,3.9-6,0-6S1013.1,256.9,1016.9,256.9L1016.9,256.9z"/>
	</g>
</g>
<g>
	<g>
		<path fill="#FF4D5A" d="M765.9,305.4c3.9,0,3.9-6,0-6S762.1,305.4,765.9,305.4L765.9,305.4z"/>
	</g>
</g>
<g>
	<g>
		<path fill="#FF4D5A" d="M698.3,450c3.9,0,3.9-6,0-6S694.4,450,698.3,450L698.3,450z"/>
	</g>
</g>
<g>
	<g>
		<path fill="#FF4D5A" d="M421.8,89.3c3.9,0,3.9-6,0-6C418,83.3,418,89.3,421.8,89.3L421.8,89.3z"/>
	</g>
</g>
<g>
	<g>
		<path fill="#FF4D5A" d="M467.9,168.7c3.9,0,3.9-6,0-6C464,162.7,464,168.7,467.9,168.7L467.9,168.7z"/>
	</g>
</g>
<g>
	<g>
		<path fill="#FF4D5A" d="M582.6,288.8c3.9,0,3.9-6,0-6S578.7,288.8,582.6,288.8L582.6,288.8z"/>
	</g>
</g>
<g>
	<g>
		<path fill="#FF4D5A" d="M168.9,302c3.9,0,3.9-6,0-6C165,296,165,302,168.9,302L168.9,302z"/>
	</g>
</g>
<g>
	<g>
		<path fill="#FF4D5A" d="M190,205.4c3.9,0,3.9-6,0-6C186.1,199.4,186.1,205.4,190,205.4L190,205.4z"/>
	</g>
</g>
<g>
	<g>
		<path fill="#FF4D5A" d="M901.7,218.6c1.9,0,1.9-3,0-3C899.8,215.6,899.8,218.6,901.7,218.6L901.7,218.6z"/>
	</g>
</g>
<g>
	<g>
		<path fill="#FF4D5A" d="M1022.3,219.1c1.9,0,1.9-3,0-3S1020.4,219.1,1022.3,219.1L1022.3,219.1z"/>
	</g>
</g>
<g>
	<g>
		<path fill="#FF4D5A" d="M1003.7,480.4c1.9,0,1.9-3,0-3C1001.8,477.4,1001.8,480.4,1003.7,480.4L1003.7,480.4z"/>
	</g>
</g>
<g>
	<g>
		<path fill="#FF4D5A" d="M759.1,622.1c1.9,0,1.9-3,0-3S757.1,622.1,759.1,622.1L759.1,622.1z"/>
	</g>
</g>
<g>
	<g>
		<path fill="#FF4D5A" d="M715.5,712.8c1.9,0,1.9-3,0-3C713.5,709.8,713.5,712.8,715.5,712.8L715.5,712.8z"/>
	</g>
</g>
<g>
	<g>
		<path fill="#FF4D5A" d="M1186.5,450.5c1.9,0,1.9-3,0-3S1184.6,450.5,1186.5,450.5L1186.5,450.5z"/>
	</g>
</g>
<g>
	<g>
		<path fill="#FF4D5A" d="M1310.5,580.4c1.9,0,1.9-3,0-3C1308.6,577.4,1308.6,580.4,1310.5,580.4L1310.5,580.4z"/>
	</g>
</g>
<g>
	<g>
		<path fill="#FF4D5A" d="M521.3,672.1c1.9,0,1.9-3,0-3C519.4,669.1,519.4,672.1,521.3,672.1L521.3,672.1z"/>
	</g>
</g>
<g>
	<g>
		<path fill="#FF4D5A" d="M604.2,129.4c1.9,0,1.9-3,0-3C602.2,126.4,602.2,129.4,604.2,129.4L604.2,129.4z"/>
	</g>
</g>
<g>
	<g>
		<path fill="#FF4D5A" d="M604.7,386.3c1.9,0,1.9-3,0-3C602.7,383.3,602.7,386.3,604.7,386.3L604.7,386.3z"/>
	</g>
</g>
<g>
	<g>
		<path fill="#FF4D5A" d="M394.4,426.5c1.9,0,1.9-3,0-3S392.4,426.5,394.4,426.5L394.4,426.5z"/>
	</g>
</g>
<g>
	<g>
		<path fill="#FF4D5A" d="M173.3,669.6c1.9,0,1.9-3,0-3C171.4,666.6,171.4,669.6,173.3,669.6L173.3,669.6z"/>
	</g>
</g>
<g>
	<g>
		<path fill="#FF4D5A" d="M123.8,58.3c1.9,0,1.9-3,0-3C121.8,55.3,121.8,58.3,123.8,58.3L123.8,58.3z"/>
	</g>
</g>
<g>
	<g>
		<path fill="#FF4D5A" d="M323.3,146.6c1.9,0,1.9-3,0-3S321.4,146.6,323.3,146.6L323.3,146.6z"/>
	</g>
</g>
<g>
	<g>
		<path fill="#FF4D5A" d="M322.3,245.1c1.9,0,1.9-3,0-3S320.4,245.1,322.3,245.1L322.3,245.1z"/>
	</g>
</g>
<g>
	<g>
		<path fill="#FF4D5A" d="M394.6,175.8c1-0.6,1.9-1.5,2.5-2.5c0.4-0.7,0.2-1.6-0.5-2.1c-0.7-0.4-1.6-0.2-2.1,0.5
			c-0.4,0.7-0.8,1-1.4,1.4c-0.7,0.4-1,1.3-0.5,2.1C393,175.9,393.9,176.2,394.6,175.8L394.6,175.8z"/>
	</g>
</g>
<g>
	<g>
		<path fill="#FF4D5A" d="M442.9,264.2c1.9,0,1.9-3,0-3C441,261.2,441,264.2,442.9,264.2L442.9,264.2z"/>
	</g>
</g>
<g>
	<g>
		<path fill="#FF4D5A" d="M883.6,84.8c1.9,0,1.9-3,0-3C881.7,81.8,881.7,84.8,883.6,84.8L883.6,84.8z"/>
	</g>
</g>
<g>
	<g>
		<path fill="#FF4D5A" d="M887,159.3c1.9,0,1.9-3,0-3C885.1,156.3,885.1,159.3,887,159.3L887,159.3z"/>
	</g>
</g>
<g>
	<g>
		<path fill="#FF4D5A" d="M811.5,149.5c1.9,0,1.9-3,0-3C809.6,146.5,809.6,149.5,811.5,149.5L811.5,149.5z"/>
	</g>
</g>
<g>
	<g>
		<path fill="#FF4D5A" d="M845.4,271.1c1.9,0,1.9-3,0-3C843.4,268.1,843.4,271.1,845.4,271.1L845.4,271.1z"/>
	</g>
</g>
<g>
	<g>
		<path fill="#FF4D5A" d="M856.6,310.8c1.9,0,1.9-3,0-3C854.7,307.8,854.7,310.8,856.6,310.8L856.6,310.8z"/>
	</g>
</g>
<g>
	<g>
		<path fill="#FF4D5A" d="M903.2,477.5c1.9,0,1.9-3,0-3C901.3,474.5,901.3,477.5,903.2,477.5L903.2,477.5z"/>
	</g>
</g>
<g>
	<g>
		<path fill="#FF4D5A" d="M946.3,434.3c1.9,0,1.9-3,0-3C944.4,431.3,944.4,434.3,946.3,434.3L946.3,434.3z"/>
	</g>
</g>
<g>
	<g>
		<path fill="#FF4D5A" d="M1097.3,433.8c1.9,0,1.9-3,0-3S1095.4,433.8,1097.3,433.8L1097.3,433.8z"/>
	</g>
</g>
<g>
	<g>
		<path fill="#FF4D5A" d="M1055.6,400c1.9,0,1.9-3,0-3C1053.7,397,1053.7,400,1055.6,400L1055.6,400z"/>
	</g>
</g>
<g>
	<g>
		<path fill="#FF4D5A" d="M1021.8,304.9c1.9,0,1.9-3,0-3C1019.9,301.9,1019.9,304.9,1021.8,304.9L1021.8,304.9z"/>
	</g>
</g>
<g>
	<g>
		<path fill="#FF4D5A" d="M1235.1,117.2c1.9,0,1.9-3,0-3S1233.1,117.2,1235.1,117.2L1235.1,117.2z"/>
	</g>
</g>
<g>
	<g>
		<path fill="#FF4D5A" d="M1238,66.7c1.9,0,1.9-3,0-3S1236.1,66.7,1238,66.7L1238,66.7z"/>
	</g>
</g>
<g>
	<g>
		<path fill="#FF4D5A" d="M1306.1,195.6c1.9,0,1.9-3,0-3C1304.2,192.6,1304.2,195.6,1306.1,195.6L1306.1,195.6z"/>
	</g>
</g>
<g>
	<g>
		<path fill="#FF4D5A" d="M1335.5,321.1c1.9,0,1.9-3,0-3C1333.6,318.1,1333.6,321.1,1335.5,321.1L1335.5,321.1z"/>
	</g>
</g>
<g>
	<g>
		<path fill="#FF4D5A" d="M1269.4,506.4c1.9,0,1.9-3,0-3S1267.4,506.4,1269.4,506.4L1269.4,506.4z"/>
	</g>
</g>
<g>
	<g>
		<path fill="#FF4D5A" d="M649.3,41.7c1.9,0,1.9-3,0-3C647.3,38.7,647.3,41.7,649.3,41.7L649.3,41.7z"/>
	</g>
</g>
<g>
	<g>
		<path fill="#FF4D5A" d="M626.7,192.7c1.9,0,1.9-3,0-3C624.8,189.7,624.8,192.7,626.7,192.7L626.7,192.7z"/>
	</g>
</g>
<g>
	<g>
		<path fill="#FF4D5A" d="M717.9,136.8c1.9,0,1.9-3,0-3C716,133.8,716,136.8,717.9,136.8L717.9,136.8z"/>
	</g>
</g>
<g>
	<g>
		<path fill="#FF4D5A" d="M790.9,99.5c1.9,0,1.9-3,0-3C789,96.5,789,99.5,790.9,99.5L790.9,99.5z"/>
	</g>
</g>
<g>
	<g>
		<path fill="#FF4D5A" d="M837.5,120.1c1.9,0,1.9-3,0-3C835.6,117.1,835.6,120.1,837.5,120.1L837.5,120.1z"/>
	</g>
</g>
<g>
	<g>
		<path fill="#FF4D5A" d="M850.3,478.4c1.9,0,1.9-3,0-3C848.3,475.4,848.3,478.4,850.3,478.4L850.3,478.4z"/>
	</g>
</g>
<g>
	<g>
		<path fill="#FF4D5A" d="M718.9,655.4c1.9,0,1.9-3,0-3C716.9,652.4,716.9,655.4,718.9,655.4L718.9,655.4z"/>
	</g>
</g>
<g>
	<g>
		<path fill="#FF4D5A" d="M827.1,696.1c0.2,0.2,0.3,0.3,0.5,0.5c0.6,0.6,1.5,0.6,2.1,0c0.6-0.6,0.6-1.5,0-2.1
			c-0.2-0.2-0.3-0.3-0.5-0.5c-0.6-0.6-1.5-0.6-2.1,0C826.6,694.6,826.6,695.6,827.1,696.1L827.1,696.1z"/>
	</g>
</g>
<g>
	<g>
		<path fill="#FF4D5A" d="M771.8,656.4c1.9,0,1.9-3,0-3C769.9,653.4,769.9,656.4,771.8,656.4L771.8,656.4z"/>
	</g>
</g>
<g>
	<g>
		<path fill="#FF4D5A" d="M768.9,634.8c1.9,0,1.9-3,0-3C766.9,631.8,766.9,634.8,768.9,634.8L768.9,634.8z"/>
	</g>
</g>
<g>
	<g>
		<path fill="#FF4D5A" d="M789.5,629.4c1.9,0,1.9-3,0-3C787.5,626.4,787.5,629.4,789.5,629.4L789.5,629.4z"/>
	</g>
</g>
<g>
	<g>
		<path fill="#FF4D5A" d="M771.3,607.9c1.9,0,1.9-3,0-3C769.4,604.9,769.4,607.9,771.3,607.9L771.3,607.9z"/>
	</g>
</g>
<g>
	<g>
		<path fill="#FF4D5A" d="M773.3,621.1c1.9,0,1.9-3,0-3C771.4,618.1,771.4,621.1,773.3,621.1L773.3,621.1z"/>
	</g>
</g>
<g>
	<g>
		<path fill="#FF4D5A" d="M777.2,628c1.9,0,1.9-3,0-3C775.3,625,775.3,628,777.2,628L777.2,628z"/>
	</g>
</g>
<g>
	<g>
		<path fill="#FF4D5A" d="M775.3,634.8c1.9,0,1.9-3,0-3C773.3,631.8,773.3,634.8,775.3,634.8L775.3,634.8z"/>
	</g>
</g>
<g>
	<g>
		<path fill="#FF4D5A" d="M1146.3,706.4c1.9,0,1.9-3,0-3C1144.4,703.4,1144.4,706.4,1146.3,706.4L1146.3,706.4z"/>
	</g>
</g>
<g>
	<g>
		<path fill="#FF4D5A" d="M1137.5,683.8c1.9,0,1.9-3,0-3C1135.6,680.8,1135.6,683.8,1137.5,683.8L1137.5,683.8z"/>
	</g>
</g>
<g>
	<g>
		<path fill="#FF4D5A" d="M1145.8,693.1c1.9,0,1.9-3,0-3S1143.9,693.1,1145.8,693.1L1145.8,693.1z"/>
	</g>
</g>
<g>
	<g>
		<path fill="#FF4D5A" d="M1159.6,689.2c1.9,0,1.9-3,0-3S1157.6,689.2,1159.6,689.2L1159.6,689.2z"/>
	</g>
</g>
<g>
	<g>
		<path fill="#FF4D5A" d="M1160.5,712.8c1.9,0,1.9-3,0-3C1158.6,709.8,1158.6,712.8,1160.5,712.8L1160.5,712.8z"/>
	</g>
</g>
<g>
	<g>
		<path fill="#FF4D5A" d="M1159.6,695.6c1.9,0,1.9-3,0-3S1157.6,695.6,1159.6,695.6L1159.6,695.6z"/>
	</g>
</g>
<g>
	<g>
		<path fill="#FF4D5A" d="M1152.2,696.1c1.9,0,1.9-3,0-3S1150.3,696.1,1152.2,696.1L1152.2,696.1z"/>
	</g>
</g>
<g>
	<g>
		<path fill="#FF4D5A" d="M459.6,279.4c1.9,0,1.9-3,0-3S457.6,279.4,459.6,279.4L459.6,279.4z"/>
	</g>
</g>
<g>
	<g>
		<path fill="#FF4D5A" d="M466.9,262.8c1.9,0,1.9-3,0-3S465,262.8,466.9,262.8L466.9,262.8z"/>
	</g>
</g>
<g>
	<g>
		<path fill="#FF4D5A" d="M453.2,267.7c1.9,0,1.9-3,0-3S451.3,267.7,453.2,267.7L453.2,267.7z"/>
	</g>
</g>
<g>
	<g>
		<path fill="#FF4D5A" d="M639,352c1.9,0,1.9-3,0-3C637,349,637,352,639,352L639,352z"/>
	</g>
</g>
<g>
	<g>
		<path fill="#FF4D5A" d="M639.5,298.5c1.9,0,1.9-3,0-3C637.5,295.5,637.5,298.5,639.5,298.5L639.5,298.5z"/>
	</g>
</g>
<g>
	<g>
		<path fill="#FF4D5A" d="M688.5,304.9c1.9,0,1.9-3,0-3C686.6,301.9,686.6,304.9,688.5,304.9L688.5,304.9z"/>
	</g>
</g>
<g>
	<g>
		<path fill="#FF4D5A" d="M648.8,292.2c1.9,0,1.9-3,0-3C646.8,289.2,646.8,292.2,648.8,292.2L648.8,292.2z"/>
	</g>
</g>
<g>
	<g>
		<path fill="#FF4D5A" d="M654.7,327.5c1.9,0,1.9-3,0-3C652.7,324.5,652.7,327.5,654.7,327.5L654.7,327.5z"/>
	</g>
</g>
<g>
	<g>
		<path fill="#FF4D5A" d="M648.8,316.7c1.9,0,1.9-3,0-3C646.8,313.7,646.8,316.7,648.8,316.7L648.8,316.7z"/>
	</g>
</g>
<g>
	<g>
		<path fill="#FF4D5A" d="M663.5,296.1c1.9,0,1.9-3,0-3C661.6,293.1,661.6,296.1,663.5,296.1L663.5,296.1z"/>
	</g>
</g>
<g>
	<g>
		<path fill="#FF4D5A" d="M876.2,297.6c1.9,0,1.9-3,0-3S874.3,297.6,876.2,297.6L876.2,297.6z"/>
	</g>
</g>
<g>
	<g>
		<path fill="#FF4D5A" d="M898.8,290.2c1.9,0,1.9-3,0-3C896.8,287.2,896.8,290.2,898.8,290.2L898.8,290.2z"/>
	</g>
</g>
<g>
	<g>
		<path fill="#FF4D5A" d="M904.7,286.8c1.9,0,1.9-3,0-3C902.7,283.8,902.7,286.8,904.7,286.8L904.7,286.8z"/>
	</g>
</g>
<g>
	<g>
		<path fill="#FF4D5A" d="M924.3,300c1.9,0,1.9-3,0-3C922.3,297,922.3,300,924.3,300L924.3,300z"/>
	</g>
</g>
<g>
	<g>
		<path fill="#FF4D5A" d="M944.9,253c1.9,0,1.9-3,0-3C942.9,250,942.9,253,944.9,253L944.9,253z"/>
	</g>
</g>
<g>
	<g>
		<path fill="#FF4D5A" d="M961,321.6c1.9,0,1.9-3,0-3C959.1,318.6,959.1,321.6,961,321.6L961,321.6z"/>
	</g>
</g>
<g>
	<g>
		<path fill="#FF4D5A" d="M970.8,370.1c1.9,0,1.9-3,0-3S968.9,370.1,970.8,370.1L970.8,370.1z"/>
	</g>
</g>
<g>
	<g>
		<path fill="#FF4D5A" d="M948.8,338.7c1.9,0,1.9-3,0-3C946.8,335.7,946.8,338.7,948.8,338.7L948.8,338.7z"/>
	</g>
</g>
<g>
	<g>
		<path fill="#FF4D5A" d="M949.8,328c1.9,0,1.9-3,0-3S947.8,328,949.8,328L949.8,328z"/>
	</g>
</g>
<g>
	<g>
		<path fill="#FF4D5A" d="M949.8,328c1.9,0,1.9-3,0-3S947.8,328,949.8,328L949.8,328z"/>
	</g>
</g>
<g>
	<g>
		<path fill="#FF4D5A" d="M955.6,328.4c1.9,0,1.9-3,0-3C953.7,325.4,953.7,328.4,955.6,328.4L955.6,328.4z"/>
	</g>
</g>
<g>
	<g>
		<path fill="#FF4D5A" d="M957.1,336.3c1.9,0,1.9-3,0-3C955.2,333.3,955.2,336.3,957.1,336.3L957.1,336.3z"/>
	</g>
</g>
<g>
	<g>
		<path fill="#FF4D5A" d="M950.7,334.3c1.9,0,1.9-3,0-3C948.8,331.3,948.8,334.3,950.7,334.3L950.7,334.3z"/>
	</g>
</g>
<g>
	<g>
		<path fill="#FF4D5A" d="M949.8,319.1c1.9,0,1.9-3,0-3S947.8,319.1,949.8,319.1L949.8,319.1z"/>
	</g>
</g>
<g>
	<g>
		<path fill="#FF4D5A" d="M246.3,552c1.9,0,1.9-3,0-3C244.4,549,244.4,552,246.3,552L246.3,552z"/>
	</g>
</g>
<g>
	<g>
		<path fill="#FF4D5A" d="M242.9,546.6c1.9,0,1.9-3,0-3S241,546.6,242.9,546.6L242.9,546.6z"/>
	</g>
</g>
<g>
	<g>
		<path fill="#FF4D5A" d="M259.1,543.1c1.9,0,1.9-3,0-3S257.1,543.1,259.1,543.1L259.1,543.1z"/>
	</g>
</g>
<g>
	<g>
		<path fill="#FF4D5A" d="M254.7,548.5c1.9,0,1.9-3,0-3C252.7,545.5,252.7,548.5,254.7,548.5L254.7,548.5z"/>
	</g>
</g>
<g>
	<g>
		<path fill="#FF4D5A" d="M376.7,540.2c1.9,0,1.9-3,0-3S374.8,540.2,376.7,540.2L376.7,540.2z"/>
	</g>
</g>
<g>
	<g>
		<path fill="#FF4D5A" d="M325.3,460.8c1.9,0,1.9-3,0-3S323.3,460.8,325.3,460.8L325.3,460.8z"/>
	</g>
</g>
<g>
	<g>
		<path fill="#FF4D5A" d="M1122.8,259.8c1.9,0,1.9-3,0-3C1120.9,256.8,1120.9,259.8,1122.8,259.8L1122.8,259.8z"/>
	</g>
</g>
<g>
	<g>
		<path fill="#FF4D5A" d="M996.3,216.7c3.9,0,3.9-6,0-6S992.5,216.7,996.3,216.7L996.3,216.7z"/>
	</g>
</g>
<g>
	<g>
		<path fill="#FF4D5A" d="M1087.5,225c3.9,0,3.9-6,0-6C1083.6,219,1083.6,225,1087.5,225L1087.5,225z"/>
	</g>
</g>
<g>
	<g>
		<path fill="#FF4D5A" d="M1094.4,335.3c3.9,0,3.9-6,0-6C1090.5,329.3,1090.5,335.3,1094.4,335.3L1094.4,335.3z"/>
	</g>
</g>
<g>
	<g>
		<path fill="#FF4D5A" d="M1172.8,344.6c3.9,0,3.9-6,0-6C1168.9,338.6,1168.9,344.6,1172.8,344.6L1172.8,344.6z"/>
	</g>
</g>
<g>
	<g>
		<path fill="#FF4D5A" d="M1108.1,462.3c3.9,0,3.9-6,0-6C1104.2,456.3,1104.2,462.3,1108.1,462.3L1108.1,462.3z"/>
	</g>
</g>
<g>
	<g>
		<path fill="#FF4D5A" d="M970.4,524.1c3.9,0,3.9-6,0-6C966.5,518.1,966.5,524.1,970.4,524.1L970.4,524.1z"/>
	</g>
</g>
<g>
	<g>
		<path fill="#FF4D5A" d="M779.7,420.1c3.9,0,3.9-6,0-6S775.8,420.1,779.7,420.1L779.7,420.1z"/>
	</g>
</g>
<g>
	<g>
		<path fill="#FF4D5A" d="M744.9,238.3c3.9,0,3.9-6,0-6S741,238.3,744.9,238.3L744.9,238.3z"/>
	</g>
</g>
<g>
	<g>
		<path fill="#FF4D5A" d="M960.5,529.5c3.9,0,3.9-6,0-6S956.7,529.5,960.5,529.5L960.5,529.5z"/>
	</g>
</g>
<g>
	<g>
		<path fill="#FF4D5A" d="M972.3,479.9c3.9,0,3.9-6,0-6S968.4,479.9,972.3,479.9L972.3,479.9z"/>
	</g>
</g>
<g>
	<g>
		<path fill="#FF4D5A" d="M788.5,456.9c3.9,0,3.9-6,0-6S784.6,456.9,788.5,456.9L788.5,456.9z"/>
	</g>
</g>
<g>
	<g>
		<path fill="#FF4D5A" d="M746.8,400.5c3.9,0,3.9-6,0-6S743,400.5,746.8,400.5L746.8,400.5z"/>
	</g>
</g>
<g>
	<g>
		<path fill="#FF4D5A" d="M1120.4,214.3c3.9,0,3.9-6,0-6C1116.5,208.3,1116.5,214.3,1120.4,214.3L1120.4,214.3z"/>
	</g>
</g>
<g>
	<g>
		<path fill="#FF4D5A" d="M1043.4,254.9c3.9,0,3.9-6,0-6C1039.5,248.9,1039.5,254.9,1043.4,254.9L1043.4,254.9z"/>
	</g>
</g>
<g>
	<g>
		<path fill="#FF4D5A" d="M1086,379.9c3.9,0,3.9-6,0-6C1082.2,373.9,1082.2,379.9,1086,379.9L1086,379.9z"/>
	</g>
</g>
<g>
	<g>
		<path fill="#FF4D5A" d="M884.6,425.5c3.9,0,3.9-6,0-6C880.7,419.5,880.7,425.5,884.6,425.5L884.6,425.5z"/>
	</g>
</g>
<g>
	<g>
		<path fill="#FF4D5A" d="M838,356.4c3.9,0,3.9-6,0-6S834.1,356.4,838,356.4L838,356.4z"/>
	</g>
</g>
<g>
	<g>
		<path fill="#FF4D5A" d="M997.8,364.7c3.9,0,3.9-6,0-6C993.9,358.7,993.9,364.7,997.8,364.7L997.8,364.7z"/>
	</g>
</g>
<g>
	<g>
		<path fill="#FF4D5A" d="M1117.9,310.3c3.9,0,3.9-6,0-6C1114,304.3,1114,310.3,1117.9,310.3L1117.9,310.3z"/>
	</g>
</g>
<g>
	<g>
		<path fill="#FF4D5A" d="M1079.7,223.1c3.9,0,3.9-6,0-6C1075.8,217.1,1075.8,223.1,1079.7,223.1L1079.7,223.1z"/>
	</g>
</g>
<g>
	<g>
		<path fill="#FF4D5A" d="M1110.5,179.9c3.9,0,3.9-6,0-6C1106.7,173.9,1106.7,179.9,1110.5,179.9L1110.5,179.9z"/>
	</g>
</g>
<g>
	<g>
		<path fill="#FF4D5A" d="M1152.2,293.7c3.9,0,3.9-6,0-6C1148.3,287.7,1148.3,293.7,1152.2,293.7L1152.2,293.7z"/>
	</g>
</g>
<g>
	<g>
		<path fill="#FF4D5A" d="M1130.2,428.5c3.9,0,3.9-6,0-6S1126.3,428.5,1130.2,428.5L1130.2,428.5z"/>
	</g>
</g>
<g>
	<g>
		<path fill="#FF4D5A" d="M1050.3,491.2c3.9,0,3.9-6,0-6C1046.4,485.2,1046.4,491.2,1050.3,491.2L1050.3,491.2z"/>
	</g>
</g>
<g>
	<g>
		<path fill="#FF4D5A" d="M1044.4,452c3.9,0,3.9-6,0-6C1040.5,446,1040.5,452,1044.4,452L1044.4,452z"/>
	</g>
</g>
<g>
	<g>
		<path fill="#FF4D5A" d="M811.5,239.3c3.9,0,3.9-6,0-6S807.7,239.3,811.5,239.3L811.5,239.3z"/>
	</g>
</g>
<g>
	<g>
		<path fill="#FF4D5A" d="M787,349.5c3.9,0,3.9-6,0-6S783.2,349.5,787,349.5L787,349.5z"/>
	</g>
</g>
<g>
	<g>
		<path fill="#FF4D5A" d="M835.5,375c3.9,0,3.9-6,0-6S831.7,375,835.5,375L835.5,375z"/>
	</g>
</g>
<g>
	<g>
		<path fill="#FF4D5A" d="M816.9,334.8c3.9,0,3.9-6,0-6S813.1,334.8,816.9,334.8L816.9,334.8z"/>
	</g>
</g>
<g>
	<g>
		<path fill="#FF4D5A" d="M835.5,206.4c3.9,0,3.9-6,0-6S831.7,206.4,835.5,206.4L835.5,206.4z"/>
	</g>
</g>
<g>
	<g>
		<path fill="#FF4D5A" d="M945.8,457.9c1.9,0,1.9-3,0-3S943.9,457.9,945.8,457.9L945.8,457.9z"/>
	</g>
</g>
<g>
	<g>
		<path fill="#FF4D5A" d="M976.7,439.7c1.9,0,1.9-3,0-3C974.8,436.7,974.8,439.7,976.7,439.7L976.7,439.7z"/>
	</g>
</g>
<g>
	<g>
		<path fill="#FF4D5A" d="M952.2,400c1.9,0,1.9-3,0-3C950.3,397,950.3,400,952.2,400L952.2,400z"/>
	</g>
</g>
<g>
	<g>
		<path fill="#FF4D5A" d="M1046.8,401.5c1.9,0,1.9-3,0-3C1044.9,398.5,1044.9,401.5,1046.8,401.5L1046.8,401.5z"/>
	</g>
</g>
<g>
	<g>
		<path fill="#FF4D5A" d="M1053.2,375.5c1.9,0,1.9-3,0-3C1051.3,372.5,1051.3,375.5,1053.2,375.5L1053.2,375.5z"/>
	</g>
</g>
<g>
	<g>
		<path fill="#FF4D5A" d="M1041.9,331.9c1.9,0,1.9-3,0-3C1040,328.9,1040,331.9,1041.9,331.9L1041.9,331.9z"/>
	</g>
</g>
<g>
	<g>
		<path fill="#FF4D5A" d="M1034.1,364.7c1.9,0,1.9-3,0-3C1032.1,361.7,1032.1,364.7,1034.1,364.7L1034.1,364.7z"/>
	</g>
</g>
<g>
	<g>
		<path fill="#FF4D5A" d="M1141.4,394.1c1.9,0,1.9-3,0-3S1139.5,394.1,1141.4,394.1L1141.4,394.1z"/>
	</g>
</g>
<g>
	<g>
		<path fill="#FF4D5A" d="M1140.9,353.9c1.9,0,1.9-3,0-3S1139,353.9,1140.9,353.9L1140.9,353.9z"/>
	</g>
</g>
<g>
	<g>
		<path fill="#FF4D5A" d="M1021.8,389.7c1.9,0,1.9-3,0-3C1019.9,386.7,1019.9,389.7,1021.8,389.7L1021.8,389.7z"/>
	</g>
</g>
<g>
	<g>
		<path fill="#FF4D5A" d="M1023.8,368.1c1.9,0,1.9-3,0-3S1021.8,368.1,1023.8,368.1L1023.8,368.1z"/>
	</g>
</g>
<g>
	<g>
		<path fill="#FF4D5A" d="M1017.4,358.3c1.9,0,1.9-3,0-3C1015.5,355.3,1015.5,358.3,1017.4,358.3L1017.4,358.3z"/>
	</g>
</g>
<g>
	<g>
		<path fill="#FF4D5A" d="M1018.4,348c1.9,0,1.9-3,0-3C1016.5,345,1016.5,348,1018.4,348L1018.4,348z"/>
	</g>
</g>
<g>
	<g>
		<path fill="#FF4D5A" d="M1023.3,355.9c1.9,0,1.9-3,0-3S1021.4,355.9,1023.3,355.9L1023.3,355.9z"/>
	</g>
</g>
<g>
	<g>
		<path fill="#FF4D5A" d="M1044.4,352.5c1.9,0,1.9-3,0-3S1042.4,352.5,1044.4,352.5L1044.4,352.5z"/>
	</g>
</g>
<g>
	<g>
		<path fill="#FF4D5A" d="M992.9,328c1.9,0,1.9-3,0-3C991,325,991,328,992.9,328L992.9,328z"/>
	</g>
</g>
<g>
	<g>
		<path fill="#FF4D5A" d="M1004.7,316.7c0.2,0,0.3,0,0.5,0c1.9,0,1.9-3,0-3c-0.2,0-0.3,0-0.5,0
			C1002.7,313.7,1002.7,316.7,1004.7,316.7L1004.7,316.7z"/>
	</g>
</g>
<g>
	<g>
		<path fill="#FF4D5A" d="M1002.7,299c1.9,0,1.9-3,0-3C1000.8,296,1000.8,299,1002.7,299L1002.7,299z"/>
	</g>
</g>
<g>
	<g>
		<path fill="#FF4D5A" d="M1014,320.6c1.9,0,1.9-3,0-3C1012,317.6,1012,320.6,1014,320.6L1014,320.6z"/>
	</g>
</g>
<g>
	<g>
		<path fill="#FF4D5A" d="M1019.4,332.9c1.9,0,1.9-3,0-3C1017.4,329.9,1017.4,332.9,1019.4,332.9L1019.4,332.9z"/>
	</g>
</g>
<g>
	<g>
		<path fill="#FF4D5A" d="M1018.4,334.3c1.9,0,1.9-3,0-3C1016.5,331.3,1016.5,334.3,1018.4,334.3L1018.4,334.3z"/>
	</g>
</g>
</svg>
