<?xml version="1.0" encoding="utf-8"?>
<!-- Generator: Adobe Illustrator 17.1.0, SVG Export Plug-In . SVG Version: 6.00 Build 0)  -->
<!DOCTYPE svg PUBLIC "-//W3C//DTD SVG 1.1//EN" "http://www.w3.org/Graphics/SVG/1.1/DTD/svg11.dtd">
<svg version="1.1" id="Layer_1" xmlns="http://www.w3.org/2000/svg" xmlns:xlink="http://www.w3.org/1999/xlink" x="0px" y="0px"
	 viewBox="0 0 1385 1385" enable-background="new 0 0 1385 1385" xml:space="preserve">
<g>
	<path fill="#FF4D5A" fill-opacity="0.1" d="M692.5,1380.9c-93.3,0-184-18.4-269.6-54.6c-82.5-34.9-156.5-84.8-220-148.2
		c-63.5-63.5-113.3-137.5-148.2-220C18.5,872.5,0.1,781.8,0.1,688.5c0-93.3,18.4-184,54.6-269.6c34.9-82.5,84.8-156.5,148.2-220
		c63.5-63.5,137.5-113.3,220-148.2C508.5,14.5,599.2-3.9,692.5-3.9c93.3,0,184,18.4,269.6,54.6c82.5,34.9,156.5,84.8,220,148.2
		c63.5,63.5,113.3,137.5,148.2,220c36.2,85.6,54.6,176.3,54.6,269.6c0,93.3-18.4,184-54.6,269.6c-34.9,82.5-84.8,156.5-148.2,219.9
		c-63.5,63.5-137.5,113.3-220,148.2C876.5,1362.5,785.8,1380.9,692.5,1380.9"/>
	<path fill="#FF4D5A" fill-opacity="0.2" d="M696.5,1310.9c-83.9,0-165.4-16.5-242.4-49.1c-74.1-31.4-140.7-76.2-197.7-133.2
		c-57-57-101.9-123.6-133.2-197.7c-32.6-77-49.1-158.5-49.1-242.4c0-83.9,16.5-165.4,49.1-242.4c31.4-74.2,76.2-140.7,133.2-197.7
		c57-57,123.6-101.9,197.7-133.2c77-32.6,158.5-49.1,242.4-49.1c83.9,0,165.4,16.5,242.4,49.1c74.2,31.4,140.7,76.2,197.7,133.2
		c57.1,57.1,101.9,123.6,133.2,197.7c32.5,76.9,49.1,158.5,49.1,242.4c0,83.9-16.5,165.4-49.1,242.4
		c-31.4,74.1-76.2,140.7-133.2,197.7c-57,57-123.6,101.9-197.7,133.2C861.9,1294.4,780.4,1310.9,696.5,1310.9"/>
	<path fill="#FF4D5A" fill-opacity="0.3" d="M692.5,1240.9c-74.5,0-146.8-14.6-215.1-43.5c-65.8-27.8-124.8-67.6-175.5-118.3
		c-50.6-50.6-90.4-109.7-118.3-175.5c-28.9-68.3-43.5-140.7-43.5-215.1s14.6-146.8,43.5-215.1c27.8-65.8,67.6-124.9,118.3-175.5
		c50.6-50.6,109.7-90.4,175.5-118.3c68.3-28.9,140.7-43.5,215.1-43.5c74.5,0,146.8,14.6,215.1,43.5
		c65.8,27.8,124.9,67.6,175.5,118.3c50.6,50.6,90.4,109.7,118.3,175.5c28.9,68.3,43.5,140.6,43.5,215.1
		c0,74.5-14.6,146.8-43.5,215.1c-27.8,65.8-67.6,124.8-118.3,175.5c-50.6,50.6-109.7,90.4-175.5,118.3
		C839.3,1226.3,767,1240.9,692.5,1240.9"/>
	<path fill="#FF4D5A" fill-opacity="0.4" d="M692.5,1170.9c-65,0-128.2-12.8-187.8-38c-57.5-24.3-109-59.1-153.3-103.3
		c-44.2-44.2-79-95.8-103.3-153.3c-25.2-59.6-38-122.8-38-187.8c0-65,12.8-128.2,38-187.8c24.3-57.5,59.1-109,103.3-153.3
		c44.2-44.2,95.8-79,153.3-103.3c59.6-25.2,122.8-38,187.8-38c65,0,128.2,12.8,187.8,38c57.5,24.3,109,59.1,153.3,103.3
		c44.2,44.2,79,95.8,103.3,153.3c25.2,59.6,38,122.8,38,187.8c0,65-12.8,128.2-38,187.8c-24.3,57.5-59.1,109-103.3,153.3
		c-44.2,44.2-95.8,79-153.3,103.3C820.7,1158.1,757.5,1170.9,692.5,1170.9"/>
	<path fill="#FF4D5A" fill-opacity="0.6" d="M692.5,1100.9c-55.6,0-109.6-10.9-160.6-32.5c-49.1-20.8-93.2-50.5-131-88.3
		c-37.8-37.8-67.5-81.9-88.3-131c-21.5-50.9-32.5-105-32.5-160.6c0-55.6,10.9-109.6,32.5-160.6c20.8-49.1,50.5-93.2,88.3-131
		c37.8-37.8,81.9-67.5,131-88.3c50.9-21.5,105-32.5,160.6-32.5s109.6,10.9,160.6,32.5c49.1,20.8,93.2,50.5,131,88.3
		c37.8,37.8,67.5,81.9,88.3,131c21.5,50.9,32.5,105,32.5,160.6c0,55.6-10.9,109.6-32.5,160.6c-20.8,49.1-50.5,93.2-88.3,131
		c-37.8,37.8-81.9,67.5-131,88.3C802.1,1090,748.1,1100.9,692.5,1100.9"/>
	<path fill="#FF4D5A" fill-opacity="0.8" d="M692.5,1030.9c-46.2,0-91-9.1-133.3-26.9c-40.8-17.2-77.4-41.9-108.8-73.3
		c-31.4-31.4-56.1-68-73.4-108.8c-17.9-42.3-26.9-87.1-26.9-133.3c0-46.2,9.1-91,26.9-133.3c17.2-40.8,41.9-77.4,73.4-108.8
		c31.4-31.4,68-56.1,108.8-73.4c42.3-17.9,87.1-26.9,133.3-26.9s91,9.1,133.3,26.9c40.8,17.2,77.4,41.9,108.8,73.3
		c31.4,31.4,56.1,68,73.3,108.8c17.9,42.3,26.9,87.1,26.9,133.3c0,46.2-9.1,91-26.9,133.3c-17.2,40.8-41.9,77.4-73.3,108.8
		c-31.4,31.4-68,56.1-108.8,73.3C783.5,1021.8,738.7,1030.9,692.5,1030.9"/>
</g>
</svg>
